REM DIRINDEX 1\2,1\3,1\4,1\5,1\6
REM DIRNAME folder01,folder02,folder03,folder04,folder05,folder06
TITLE ""
FILE "Disc6Track23.mp3" MP3
  TRACK 01 AUDIO
    TITLE "3:cjc030_11170"
    INDEX 01 00:00:00
  TRACK 02 AUDIO
    TITLE "0:"
    INDEX 01 00:00:68
  TRACK 03 AUDIO
    TITLE "4:cjc030_11171"
    INDEX 01 00:01:03
  TRACK 04 AUDIO
    TITLE "0:"
    INDEX 01 00:04:64
  TRACK 05 AUDIO
    TITLE "5:cjc030_11172"
    INDEX 01 00:04:72
  TRACK 06 AUDIO
    TITLE "0:"
    INDEX 01 00:05:69
  TRACK 07 AUDIO
    TITLE "6:cjc030_11173"
    INDEX 01 00:06:08
  TRACK 08 AUDIO
    TITLE "0:"
    INDEX 01 00:09:36
  TRACK 09 AUDIO
    TITLE "3:cjc030_11174"
    INDEX 01 00:10:06
  TRACK 10 AUDIO
    TITLE "0:"
    INDEX 01 00:10:70
  TRACK 11 AUDIO
    TITLE "4:cjc030_11175"
    INDEX 01 00:11:07
  TRACK 12 AUDIO
    TITLE "0:"
    INDEX 01 00:13:73
  TRACK 13 AUDIO
    TITLE "5:cjc030_11176"
    INDEX 01 00:14:07
  TRACK 14 AUDIO
    TITLE "0:"
    INDEX 01 00:14:72
  TRACK 15 AUDIO
    TITLE "6:cjc030_11177"
    INDEX 01 00:15:09
  TRACK 16 AUDIO
    TITLE "0:"
    INDEX 01 00:17:72
  TRACK 17 AUDIO
    TITLE "3:cjc030_11178"
    INDEX 01 00:18:46
  TRACK 18 AUDIO
    TITLE "0:"
    INDEX 01 00:19:58
  TRACK 19 AUDIO
    TITLE "4:cjc030_11179"
    INDEX 01 00:19:67
  TRACK 20 AUDIO
    TITLE "0:"
    INDEX 01 00:25:70
  TRACK 21 AUDIO
    TITLE "5:cjc030_11180"
    INDEX 01 00:26:03
  TRACK 22 AUDIO
    TITLE "0:"
    INDEX 01 00:27:16
  TRACK 23 AUDIO
    TITLE "6:cjc030_11181"
    INDEX 01 00:27:28
  TRACK 24 AUDIO
    TITLE "0:"
    INDEX 01 00:30:55
  TRACK 25 AUDIO
    TITLE "6:cjc030_11182"
    INDEX 01 00:31:12
  TRACK 26 AUDIO
    TITLE "0:"
    INDEX 01 00:35:39
  TRACK 27 AUDIO
    TITLE "3:cjc030_11183"
    INDEX 01 00:36:13
  TRACK 28 AUDIO
    TITLE "0:"
    INDEX 01 00:37:18
  TRACK 29 AUDIO
    TITLE "4:cjc030_11184"
    INDEX 01 00:37:30
  TRACK 30 AUDIO
    TITLE "0:"
    INDEX 01 00:41:24
  TRACK 31 AUDIO
    TITLE "5:cjc030_11185"
    INDEX 01 00:41:34
  TRACK 32 AUDIO
    TITLE "0:"
    INDEX 01 00:42:39
  TRACK 33 AUDIO
    TITLE "6:cjc030_11186"
    INDEX 01 00:42:51
  TRACK 34 AUDIO
    TITLE "0:"
    INDEX 01 00:46:54
  TRACK 35 AUDIO
    TITLE "3:cjc030_11187"
    INDEX 01 00:47:25
  TRACK 36 AUDIO
    TITLE "0:"
    INDEX 01 00:48:18
  TRACK 37 AUDIO
    TITLE "4:cjc030_11188"
    INDEX 01 00:48:30
  TRACK 38 AUDIO
    TITLE "0:"
    INDEX 01 00:53:58
  TRACK 39 AUDIO
    TITLE "5:cjc030_11189"
    INDEX 01 00:53:66
  TRACK 40 AUDIO
    TITLE "0:"
    INDEX 01 00:54:60
  TRACK 41 AUDIO
    TITLE "6:cjc030_11190"
    INDEX 01 00:54:72
  TRACK 42 AUDIO
    TITLE "0:"
    INDEX 01 00:57:25
  TRACK 43 AUDIO
    TITLE "6:cjc030_11191"
    INDEX 01 00:57:58
  TRACK 44 AUDIO
    TITLE "0:"
    INDEX 01 01:00:51
  TRACK 45 AUDIO
    TITLE "3:cjc030_11192"
    INDEX 01 01:01:21
  TRACK 46 AUDIO
    TITLE "0:"
    INDEX 01 01:02:24
  TRACK 47 AUDIO
    TITLE "4:cjc030_11193"
    INDEX 01 01:02:36
  TRACK 48 AUDIO
    TITLE "0:"
    INDEX 01 01:04:31
  TRACK 49 AUDIO
    TITLE "5:cjc030_11194"
    INDEX 01 01:04:39
  TRACK 50 AUDIO
    TITLE "0:"
    INDEX 01 01:05:46
  TRACK 51 AUDIO
    TITLE "6:cjc030_11195"
    INDEX 01 01:05:56
  TRACK 52 AUDIO
    TITLE "0:"
    INDEX 01 01:07:33
  TRACK 53 AUDIO
    TITLE "3:cjc030_11196"
    INDEX 01 01:08:05
  TRACK 54 AUDIO
    TITLE "0:"
    INDEX 01 01:09:20
  TRACK 55 AUDIO
    TITLE "4:cjc030_11197"
    INDEX 01 01:09:30
  TRACK 56 AUDIO
    TITLE "0:"
    INDEX 01 01:13:14
  TRACK 57 AUDIO
    TITLE "5:cjc030_11198"
    INDEX 01 01:13:24
  TRACK 58 AUDIO
    TITLE "0:"
    INDEX 01 01:14:39
  TRACK 59 AUDIO
    TITLE "6:cjc030_11199"
    INDEX 01 01:14:51
  TRACK 60 AUDIO
    TITLE "0:"
    INDEX 01 01:20:36
